<svg xmlns="http://www.w3.org/2000/svg" xmlns:xlink="http://www.w3.org/1999/xlink" id="uuid-12b9a027-cbb0-4a5d-adbe-28ddf2938374" data-name="Capa 1" width="250" height="250" viewBox="0 0 250 250">
  <defs fill="#028c8c">
    <clipPath id="uuid-6d2b2f12-4461-4882-b584-a534c551e524" fill="#028c8c">
      <path d="M234.04,148.8c-1.71,0-3.4-.43-4.88-1.24-.63-.34-1.22-.76-1.76-1.23-1.94-1.7-3.99-4.67-9.36-12.71-.1-.16-.21-.32-.32-.48-.65,1.06-1.33,2.12-2.05,3.16l-.04.06c-3,4.86-7.29,5.59-9.59,5.59-1.66,0-3.3-.34-5.17-1.08-3.15-1.23-5.43-4.01-6.03-7.34l-11.14-61.61c-.59-3.28-21.08,14.67-18.62,12.41,1.82-1.68-1.9,75.61.52,75.61.84,0,9.56,3.68,10.39,3.9l69.63,1.56c.97.26,0-22.52-.15-22.4-6.33,5.8-9.91,5.8-11.44,5.8Z" style="fill:#028c8c;"/>
    </clipPath>
    <clipPath id="uuid-41a8b4df-8fbf-4d67-97f7-99484fdbc676" fill="#028c8c">
      <rect x="175.6" y="98.42" width="56.38" height="56.38" style="fill:#028c8c;"/>
    </clipPath>
    <clipPath id="uuid-22652705-b4ea-48c2-990a-8898addedbc4" fill="#028c8c">
      <path d="M186.92,87.02l-1.5-8.32c-.59-3.28.53-6.64,2.99-8.9,1.82-1.68,4.18-2.57,6.6-2.57.84,0,1.69.11,2.52.33l1.47.39c.97.26,1.89.67,2.73,1.21,6.38,4.08,13.38,7.94,20.14,11.68,6.89,3.8,14.01,7.73,20.76,12.03l.12.07-1.34-82.81-79.68-3.46,1.39,76.22,23.82,4.14Z" style="fill:#028c8c;"/>
    </clipPath>
    <clipPath id="uuid-d04cafa0-70fb-4895-a3dc-cdfd39b460ea" fill="#028c8c">
      <rect x="20.48" y="19.95" width="56.38" height="56.38" style="fill:#028c8c;"/>
    </clipPath>
    <clipPath id="uuid-131da064-1bd7-4215-90ce-3a71513983d1" fill="#028c8c">
      <rect x="98.3" y="19.95" width="56.38" height="56.38" style="fill:#028c8c;"/>
    </clipPath>
    <clipPath id="uuid-c68cae3d-e27d-4ba2-af8c-17ce19e4378b" fill="#028c8c">
      <rect x="20.48" y="98.42" width="56.38" height="56.38" style="fill:#028c8c;"/>
    </clipPath>
    <clipPath id="uuid-8bf80084-7e7a-4cf4-9d7d-66a669799e14" fill="#028c8c">
      <rect x="98.3" y="98.42" width="56.38" height="56.38" style="fill:#028c8c;"/>
    </clipPath>
    <clipPath id="uuid-4806b036-2727-47a2-b133-5cd35cd742bc" fill="#028c8c">
      <rect x="20.48" y="176.89" width="56.38" height="56.38" style="fill:#028c8c;"/>
    </clipPath>
    <clipPath id="uuid-69d9b1e0-c185-462a-9774-22725145e9da" fill="#028c8c">
      <rect x="98.3" y="176.89" width="56.38" height="56.38" style="fill:#028c8c;"/>
    </clipPath>
    <clipPath id="uuid-ac851088-4409-44e6-8662-5e34f1487544" fill="#028c8c">
      <rect x="175.6" y="176.89" width="56.38" height="56.38" style="fill:#028c8c;"/>
    </clipPath>
  </defs>
  <g>
    <path d="M228.16,178.69v50.48h-50.48v-50.48h50.48M232.37,168.69h-58.89c-3.2,0-5.79,2.59-5.79,5.79v58.89c0,3.2,2.59,5.79,5.79,5.79h58.89c3.2,0,5.79-2.59,5.79-5.79v-58.89c0-3.2-2.59-5.79-5.79-5.79h0Z" style="fill: #028c8c;"/>
    <path d="M72.4,20.73v50.48H21.92V20.73h50.48M76.6,10.73H17.71c-3.2,0-5.79,2.59-5.79,5.79v58.89c0,3.2,2.59,5.79,5.79,5.79h58.89c3.2,0,5.79-2.59,5.79-5.79V16.52c0-3.2-2.59-5.79-5.79-5.79h0Z" style="fill: #028c8c;"/>
    <path d="M72.4,99.71v50.48H21.92v-50.48h50.48M76.6,89.71H17.71c-3.2,0-5.79,2.59-5.79,5.79v58.89c0,3.2,2.59,5.79,5.79,5.79h58.89c3.2,0,5.79-2.59,5.79-5.79v-58.89c0-3.2-2.59-5.79-5.79-5.79h0Z" style="fill: #028c8c;"/>
    <path d="M72.4,178.69v50.48H21.92v-50.48h50.48M76.6,168.69H17.71c-3.2,0-5.79,2.59-5.79,5.79v58.89c0,3.2,2.59,5.79,5.79,5.79h58.89c3.2,0,5.79-2.59,5.79-5.79v-58.89c0-3.2-2.59-5.79-5.79-5.79h0Z" style="fill: #028c8c;"/>
    <path d="M150.28,20.73v50.48h-50.48V20.73h50.48M154.48,10.73h-58.89c-3.2,0-5.79,2.59-5.79,5.79v58.89c0,3.2,2.59,5.79,5.79,5.79h58.89c3.2,0,5.79-2.59,5.79-5.79V16.52c0-3.2-2.59-5.79-5.79-5.79h0Z" style="fill: #028c8c;"/>
    <path d="M150.28,99.71v50.48h-50.48v-50.48h50.48M154.48,89.71h-58.89c-3.2,0-5.79,2.59-5.79,5.79v58.89c0,3.2,2.59,5.79,5.79,5.79h58.89c3.2,0,5.79-2.59,5.79-5.79v-58.89c0-3.2-2.59-5.79-5.79-5.79h0Z" style="fill: #028c8c;"/>
    <path d="M150.28,178.69v50.48h-50.48v-50.48h50.48M154.48,168.69h-58.89c-3.2,0-5.79,2.59-5.79,5.79v58.89c0,3.2,2.59,5.79,5.79,5.79h58.89c3.2,0,5.79-2.59,5.79-5.79v-58.89c0-3.2-2.59-5.79-5.79-5.79h0Z" style="fill: #028c8c;"/>
    <g style="clip-path: url(#uuid-6d2b2f12-4461-4882-b584-a534c551e524);">
      <path d="M228.16,99.73v50.48h-50.48v-50.48h50.48M232.37,89.73h-58.89c-3.2,0-5.79,2.59-5.79,5.79v58.89c0,3.2,2.59,5.79,5.79,5.79h58.89c3.2,0,5.79-2.59,5.79-5.79v-58.89c0-3.2-2.59-5.79-5.79-5.79h0Z" style="fill: #028c8c;"/>
      <g style="clip-path: url(#uuid-41a8b4df-8fbf-4d67-97f7-99484fdbc676);">
        <g>
          <path d="M165.48,123.5c-.5,0-1-.19-1.38-.57-.76-.76-.76-1.99,0-2.76l68.74-68.74c.76-.76,2-.76,2.76,0,.76.76.76,1.99,0,2.76l-68.74,68.74c-.38.38-.88.57-1.38.57Z" style="fill: #028c8c;"/>
          <path d="M165.48,136.84c-.5,0-1-.19-1.38-.57-.76-.76-.76-1.99,0-2.76l68.74-68.74c.76-.76,2-.76,2.76,0,.76.76.76,1.99,0,2.76l-68.74,68.74c-.38.38-.88.57-1.38.57Z" style="fill: #028c8c;"/>
          <path d="M165.48,150.17c-.5,0-1-.19-1.38-.57-.76-.76-.76-1.99,0-2.76l68.74-68.74c.76-.76,2-.76,2.76,0,.76.76.76,1.99,0,2.76l-68.74,68.74c-.38.38-.88.57-1.38.57Z" style="fill: #028c8c;"/>
          <path d="M165.48,163.5c-.5,0-1-.19-1.38-.57-.76-.76-.76-1.99,0-2.76l68.74-68.74c.76-.76,2-.76,2.76,0,.76.76.76,1.99,0,2.76l-68.74,68.74c-.38.38-.88.57-1.38.57Z" style="fill: #028c8c;"/>
          <path d="M165.48,176.84c-.5,0-1-.19-1.38-.57-.76-.76-.76-1.99,0-2.76l68.74-68.74c.76-.76,2-.76,2.76,0,.76.76.76,1.99,0,2.76l-68.74,68.74c-.38.38-.88.57-1.38.57Z" style="fill: #028c8c;"/>
          <path d="M165.48,190.17c-.5,0-1-.19-1.38-.57-.76-.76-.76-1.99,0-2.76l68.74-68.74c.76-.76,2-.76,2.76,0,.76.76.76,1.99,0,2.76l-68.74,68.74c-.38.38-.88.57-1.38.57Z" style="fill: #028c8c;"/>
          <path d="M165.48,203.51c-.5,0-1-.19-1.38-.57-.76-.76-.76-1.99,0-2.76l68.74-68.74c.76-.76,2-.76,2.76,0,.76.76.76,1.99,0,2.76l-68.74,68.74c-.38.38-.88.57-1.38.57Z" style="fill: #028c8c;"/>
        </g>
      </g>
    </g>
    <g style="clip-path: url(#uuid-22652705-b4ea-48c2-990a-8898addedbc4);">
      <g>
        <path d="M232.24,15.73c.44,0,.79.36.79.79v58.89c0,.44-.36.79-.79.79h-58.89c-.44,0-.79-.36-.79-.79V16.52c0-.44.36-.79.79-.79h58.89M232.24,10.73h-58.89c-3.2,0-5.79,2.59-5.79,5.79v58.89c0,3.2,2.59,5.79,5.79,5.79h58.89c3.2,0,5.79-2.59,5.79-5.79V16.52c0-3.2-2.59-5.79-5.79-5.79h0Z" style="fill: #028c8c;"/>
        <path d="M189.87,67.16c-.83,0-1.65-.25-2.35-.76-1.4-1.02-1.99-2.82-1.45-4.47l3.76-11.58-9.85-7.16c-1.4-1.02-1.99-2.82-1.45-4.47.54-1.65,2.07-2.76,3.8-2.76h12.18l3.76-11.58c.54-1.65,2.07-2.76,3.8-2.76s3.27,1.12,3.8,2.76l3.76,11.58h12.18c1.73,0,3.27,1.12,3.8,2.76.54,1.65-.05,3.45-1.45,4.47l-9.85,7.16,3.76,11.58c.54,1.65-.05,3.45-1.45,4.47-1.4,1.02-3.3,1.02-4.7,0l-9.85-7.16-9.85,7.16c-.7.51-1.53.76-2.35.76ZM194.64,43.95l2.25,1.63c1.4,1.02,1.99,2.82,1.45,4.47l-.86,2.64,2.25-1.63c1.4-1.02,3.3-1.02,4.7,0l2.24,1.63-.86-2.64c-.54-1.65.05-3.45,1.45-4.47l2.25-1.63h-2.77c-1.73,0-3.27-1.12-3.8-2.76l-.86-2.64-.86,2.64c-.54,1.65-2.07,2.76-3.8,2.76h-2.78Z" style="fill: #028c8c;"/>
      </g>
    </g>
  </g>
  <path d="M230.54,138.52c-1.67,0-3.33-.76-4.4-2.18-1.38-1.85-3.35-4.79-5.42-7.9-1.54-2.3-3.62-5.42-5.04-7.39-.79,1.21-1.59,2.59-2.42,4.02-1.1,1.9-2.25,3.87-3.48,5.64-.06.08-.11.17-.16.25-1.39,2.26-3.34,2.79-6.15,1.7-.97-.38-1.67-1.24-1.86-2.26l-9.57-52.89c-.18-1.01.16-2.04.92-2.74s1.82-.96,2.81-.69l1.47.39c.3.08.58.21.84.37,6.57,4.2,13.66,8.12,20.52,11.9,6.79,3.75,13.82,7.63,20.4,11.82l.25.15c.93.56,2.65,1.6,3.12,3.54.26,1.07.06,2.2-.54,3.18-.84,1.35-2.16,1.86-9.21,4.08-1.85.58-4.14,1.31-4.71,1.58-.05.03-.11.05-.15.07l11.35,15.83c.13.18.23.37.32.57,1.6,3.73-1.46,6.4-2.77,7.53-.17.15-.33.29-.49.43-.4.36-1.42,1.25-2.49,2.01-.95.68-2.05,1-3.15,1ZM215.71,113.82c.17,0,.35,0,.53.03,1.93.19,2.64,1.03,9.46,11.27,1.79,2.68,3.64,5.45,4.92,7.21.65-.49,1.26-1.02,1.49-1.23.19-.17.39-.35.6-.53.27-.24.68-.59.94-.87l-11.2-15.61c-.07-.1-.14-.21-.2-.32-.33-.62-1.35-2.49-.68-4.55.68-2.08,2.6-3,3.75-3.54.89-.43,2.67-.99,5.48-1.88.99-.31,2.29-.72,3.48-1.12-5.99-3.74-12.39-7.26-18.58-10.69-5.52-3.04-11.18-6.17-16.65-9.49l7.59,41.98c.48-.8.96-1.62,1.42-2.42,1.17-2.02,2.39-4.12,3.67-5.86l.1-.14c.49-.69,1.6-2.23,3.87-2.23Z" style="fill: #028c8c;"/>
  <g style="clip-path: url(#uuid-d04cafa0-70fb-4895-a3dc-cdfd39b460ea);">
    <g>
      <path d="M10.36,45.03c-.5,0-1-.19-1.38-.57-.76-.76-.76-1.99,0-2.76L77.73-27.03c.76-.76,2-.76,2.76,0,.76.76.76,1.99,0,2.76L11.74,44.46c-.38.38-.88.57-1.38.57Z" style="fill: #028c8c;"/>
      <path d="M10.36,58.37c-.5,0-1-.19-1.38-.57-.76-.76-.76-1.99,0-2.76L77.73-13.7c.76-.76,2-.76,2.76,0,.76.76.76,1.99,0,2.76L11.74,57.8c-.38.38-.88.57-1.38.57Z" style="fill: #028c8c;"/>
      <path d="M10.36,71.7c-.5,0-1-.19-1.38-.57-.76-.76-.76-1.99,0-2.76L77.73-.37c.76-.76,2-.76,2.76,0,.76.76.76,1.99,0,2.76L11.74,71.13c-.38.38-.88.57-1.38.57Z" style="fill: #028c8c;"/>
      <path d="M10.36,85.04c-.5,0-1-.19-1.38-.57-.76-.76-.76-1.99,0-2.76L77.73,12.97c.76-.76,2-.76,2.76,0,.76.76.76,1.99,0,2.76L11.74,84.46c-.38.38-.88.57-1.38.57Z" style="fill: #028c8c;"/>
      <path d="M10.36,98.37c-.5,0-1-.19-1.38-.57-.76-.76-.76-1.99,0-2.76L77.73,26.3c.76-.76,2-.76,2.76,0,.76.76.76,1.99,0,2.76L11.74,97.8c-.38.38-.88.57-1.38.57Z" style="fill: #028c8c;"/>
      <path d="M10.36,111.7c-.5,0-1-.19-1.38-.57-.76-.76-.76-1.99,0-2.76L77.73,39.63c.76-.76,2-.76,2.76,0,.76.76.76,1.99,0,2.76L11.74,111.13c-.38.38-.88.57-1.38.57Z" style="fill: #028c8c;"/>
      <path d="M10.36,125.04c-.5,0-1-.19-1.38-.57-.76-.76-.76-1.99,0-2.76L77.73,52.97c.76-.76,2-.76,2.76,0,.76.76.76,1.99,0,2.76L11.74,124.47c-.38.38-.88.57-1.38.57Z" style="fill: #028c8c;"/>
    </g>
  </g>
  <g style="clip-path: url(#uuid-131da064-1bd7-4215-90ce-3a71513983d1);">
    <g>
      <path d="M88.18,45.03c-.5,0-1-.19-1.38-.57-.76-.76-.76-1.99,0-2.76L155.55-27.03c.76-.76,2-.76,2.76,0,.76.76.76,1.99,0,2.76L89.56,44.46c-.38.38-.88.57-1.38.57Z" style="fill: #028c8c;"/>
      <path d="M88.18,58.37c-.5,0-1-.19-1.38-.57-.76-.76-.76-1.99,0-2.76L155.55-13.7c.76-.76,2-.76,2.76,0,.76.76.76,1.99,0,2.76L89.56,57.8c-.38.38-.88.57-1.38.57Z" style="fill: #028c8c;"/>
      <path d="M88.18,71.7c-.5,0-1-.19-1.38-.57-.76-.76-.76-1.99,0-2.76L155.55-.37c.76-.76,2-.76,2.76,0,.76.76.76,1.99,0,2.76l-68.74,68.74c-.38.38-.88.57-1.38.57Z" style="fill: #028c8c;"/>
      <path d="M88.18,85.04c-.5,0-1-.19-1.38-.57-.76-.76-.76-1.99,0-2.76L155.55,12.97c.76-.76,2-.76,2.76,0,.76.76.76,1.99,0,2.76l-68.74,68.74c-.38.38-.88.57-1.38.57Z" style="fill: #028c8c;"/>
      <path d="M88.18,98.37c-.5,0-1-.19-1.38-.57-.76-.76-.76-1.99,0-2.76L155.55,26.3c.76-.76,2-.76,2.76,0,.76.76.76,1.99,0,2.76l-68.74,68.74c-.38.38-.88.57-1.38.57Z" style="fill: #028c8c;"/>
      <path d="M88.18,111.7c-.5,0-1-.19-1.38-.57-.76-.76-.76-1.99,0-2.76l68.74-68.74c.76-.76,2-.76,2.76,0,.76.76.76,1.99,0,2.76l-68.74,68.74c-.38.38-.88.57-1.38.57Z" style="fill: #028c8c;"/>
      <path d="M88.18,125.04c-.5,0-1-.19-1.38-.57-.76-.76-.76-1.99,0-2.76l68.74-68.74c.76-.76,2-.76,2.76,0,.76.76.76,1.99,0,2.76l-68.74,68.74c-.38.38-.88.57-1.38.57Z" style="fill: #028c8c;"/>
    </g>
  </g>
  <g style="clip-path: url(#uuid-c68cae3d-e27d-4ba2-af8c-17ce19e4378b);">
    <g>
      <path d="M10.36,123.5c-.5,0-1-.19-1.38-.57-.76-.76-.76-1.99,0-2.76L77.73,51.43c.76-.76,2-.76,2.76,0,.76.76.76,1.99,0,2.76L11.74,122.93c-.38.38-.88.57-1.38.57Z" style="fill: #028c8c;"/>
      <path d="M10.36,136.84c-.5,0-1-.19-1.38-.57-.76-.76-.76-1.99,0-2.76l68.74-68.74c.76-.76,2-.76,2.76,0,.76.76.76,1.99,0,2.76L11.74,136.27c-.38.38-.88.57-1.38.57Z" style="fill: #028c8c;"/>
      <path d="M10.36,150.17c-.5,0-1-.19-1.38-.57-.76-.76-.76-1.99,0-2.76l68.74-68.74c.76-.76,2-.76,2.76,0,.76.76.76,1.99,0,2.76L11.74,149.6c-.38.38-.88.57-1.38.57Z" style="fill: #028c8c;"/>
      <path d="M10.36,163.5c-.5,0-1-.19-1.38-.57-.76-.76-.76-1.99,0-2.76l68.74-68.74c.76-.76,2-.76,2.76,0,.76.76.76,1.99,0,2.76L11.74,162.93c-.38.38-.88.57-1.38.57Z" style="fill: #028c8c;"/>
      <path d="M10.36,176.84c-.5,0-1-.19-1.38-.57-.76-.76-.76-1.99,0-2.76l68.74-68.74c.76-.76,2-.76,2.76,0,.76.76.76,1.99,0,2.76L11.74,176.27c-.38.38-.88.57-1.38.57Z" style="fill: #028c8c;"/>
      <path d="M10.36,190.17c-.5,0-1-.19-1.38-.57-.76-.76-.76-1.99,0-2.76l68.74-68.74c.76-.76,2-.76,2.76,0,.76.76.76,1.99,0,2.76L11.74,189.6c-.38.38-.88.57-1.38.57Z" style="fill: #028c8c;"/>
      <path d="M10.36,203.51c-.5,0-1-.19-1.38-.57-.76-.76-.76-1.99,0-2.76l68.74-68.74c.76-.76,2-.76,2.76,0,.76.76.76,1.99,0,2.76L11.74,202.93c-.38.38-.88.57-1.38.57Z" style="fill: #028c8c;"/>
    </g>
  </g>
  <g style="clip-path: url(#uuid-8bf80084-7e7a-4cf4-9d7d-66a669799e14);">
    <g>
      <path d="M88.18,123.5c-.5,0-1-.19-1.38-.57-.76-.76-.76-1.99,0-2.76l68.74-68.74c.76-.76,2-.76,2.76,0,.76.76.76,1.99,0,2.76l-68.74,68.74c-.38.38-.88.57-1.38.57Z" style="fill: #028c8c;"/>
      <path d="M88.18,136.84c-.5,0-1-.19-1.38-.57-.76-.76-.76-1.99,0-2.76l68.74-68.74c.76-.76,2-.76,2.76,0,.76.76.76,1.99,0,2.76l-68.74,68.74c-.38.38-.88.57-1.38.57Z" style="fill: #028c8c;"/>
      <path d="M88.18,150.17c-.5,0-1-.19-1.38-.57-.76-.76-.76-1.99,0-2.76l68.74-68.74c.76-.76,2-.76,2.76,0,.76.76.76,1.99,0,2.76l-68.74,68.74c-.38.38-.88.57-1.38.57Z" style="fill: #028c8c;"/>
      <path d="M88.18,163.5c-.5,0-1-.19-1.38-.57-.76-.76-.76-1.99,0-2.76l68.74-68.74c.76-.76,2-.76,2.76,0,.76.76.76,1.99,0,2.76l-68.74,68.74c-.38.38-.88.57-1.38.57Z" style="fill: #028c8c;"/>
      <path d="M88.18,176.84c-.5,0-1-.19-1.38-.57-.76-.76-.76-1.99,0-2.76l68.74-68.74c.76-.76,2-.76,2.76,0,.76.76.76,1.99,0,2.76l-68.74,68.74c-.38.38-.88.57-1.38.57Z" style="fill: #028c8c;"/>
      <path d="M88.18,190.17c-.5,0-1-.19-1.38-.57-.76-.76-.76-1.99,0-2.76l68.74-68.74c.76-.76,2-.76,2.76,0,.76.76.76,1.99,0,2.76l-68.74,68.74c-.38.38-.88.57-1.38.57Z" style="fill: #028c8c;"/>
      <path d="M88.18,203.51c-.5,0-1-.19-1.38-.57-.76-.76-.76-1.99,0-2.76l68.74-68.74c.76-.76,2-.76,2.76,0,.76.76.76,1.99,0,2.76l-68.74,68.74c-.38.38-.88.57-1.38.57Z" style="fill: #028c8c;"/>
    </g>
  </g>
  <g style="clip-path: url(#uuid-4806b036-2727-47a2-b133-5cd35cd742bc);">
    <g>
      <path d="M10.36,201.97c-.5,0-1-.19-1.38-.57-.76-.76-.76-1.99,0-2.76l68.74-68.74c.76-.76,2-.76,2.76,0,.76.76.76,1.99,0,2.76L11.74,201.4c-.38.38-.88.57-1.38.57Z" style="fill: #028c8c;"/>
      <path d="M10.36,215.31c-.5,0-1-.19-1.38-.57-.76-.76-.76-1.99,0-2.76l68.74-68.74c.76-.76,2-.76,2.76,0,.76.76.76,1.99,0,2.76L11.74,214.73c-.38.38-.88.57-1.38.57Z" style="fill: #028c8c;"/>
      <path d="M10.36,228.64c-.5,0-1-.19-1.38-.57-.76-.76-.76-1.99,0-2.76l68.74-68.74c.76-.76,2-.76,2.76,0,.76.76.76,1.99,0,2.76L11.74,228.07c-.38.38-.88.57-1.38.57Z" style="fill: #028c8c;"/>
      <path d="M10.36,241.97c-.5,0-1-.19-1.38-.57-.76-.76-.76-1.99,0-2.76l68.74-68.74c.76-.76,2-.76,2.76,0,.76.76.76,1.99,0,2.76L11.74,241.4c-.38.38-.88.57-1.38.57Z" style="fill: #028c8c;"/>
      <path d="M10.36,255.31c-.5,0-1-.19-1.38-.57-.76-.76-.76-1.99,0-2.76l68.74-68.74c.76-.76,2-.76,2.76,0,.76.76.76,1.99,0,2.76L11.74,254.74c-.38.38-.88.57-1.38.57Z" style="fill: #028c8c;"/>
      <path d="M10.36,268.64c-.5,0-1-.19-1.38-.57-.76-.76-.76-1.99,0-2.76l68.74-68.74c.76-.76,2-.76,2.76,0,.76.76.76,1.99,0,2.76L11.74,268.07c-.38.38-.88.57-1.38.57Z" style="fill: #028c8c;"/>
      <path d="M10.36,281.97c-.5,0-1-.19-1.38-.57-.76-.76-.76-1.99,0-2.76l68.74-68.74c.76-.76,2-.76,2.76,0,.76.76.76,1.99,0,2.76L11.74,281.4c-.38.38-.88.57-1.38.57Z" style="fill: #028c8c;"/>
    </g>
  </g>
  <g style="clip-path: url(#uuid-69d9b1e0-c185-462a-9774-22725145e9da);">
    <g>
      <path d="M88.18,201.97c-.5,0-1-.19-1.38-.57-.76-.76-.76-1.99,0-2.76l68.74-68.74c.76-.76,2-.76,2.76,0,.76.76.76,1.99,0,2.76l-68.74,68.74c-.38.38-.88.57-1.38.57Z" style="fill: #028c8c;"/>
      <path d="M88.18,215.31c-.5,0-1-.19-1.38-.57-.76-.76-.76-1.99,0-2.76l68.74-68.74c.76-.76,2-.76,2.76,0,.76.76.76,1.99,0,2.76l-68.74,68.74c-.38.38-.88.57-1.38.57Z" style="fill: #028c8c;"/>
      <path d="M88.18,228.64c-.5,0-1-.19-1.38-.57-.76-.76-.76-1.99,0-2.76l68.74-68.74c.76-.76,2-.76,2.76,0,.76.76.76,1.99,0,2.76l-68.74,68.74c-.38.38-.88.57-1.38.57Z" style="fill: #028c8c;"/>
      <path d="M88.18,241.97c-.5,0-1-.19-1.38-.57-.76-.76-.76-1.99,0-2.76l68.74-68.74c.76-.76,2-.76,2.76,0,.76.76.76,1.99,0,2.76l-68.74,68.74c-.38.38-.88.57-1.38.57Z" style="fill: #028c8c;"/>
      <path d="M88.18,255.31c-.5,0-1-.19-1.38-.57-.76-.76-.76-1.99,0-2.76l68.74-68.74c.76-.76,2-.76,2.76,0,.76.76.76,1.99,0,2.76l-68.74,68.74c-.38.38-.88.57-1.38.57Z" style="fill: #028c8c;"/>
      <path d="M88.18,268.64c-.5,0-1-.19-1.38-.57-.76-.76-.76-1.99,0-2.76l68.74-68.74c.76-.76,2-.76,2.76,0,.76.76.76,1.99,0,2.76l-68.74,68.74c-.38.38-.88.57-1.38.57Z" style="fill: #028c8c;"/>
      <path d="M88.18,281.97c-.5,0-1-.19-1.38-.57-.76-.76-.76-1.99,0-2.76l68.74-68.74c.76-.76,2-.76,2.76,0,.76.76.76,1.99,0,2.76l-68.74,68.74c-.38.38-.88.57-1.38.57Z" style="fill: #028c8c;"/>
    </g>
  </g>
  <g style="clip-path: url(#uuid-ac851088-4409-44e6-8662-5e34f1487544);">
    <g>
      <path d="M165.48,201.97c-.5,0-1-.19-1.38-.57-.76-.76-.76-1.99,0-2.76l68.74-68.74c.76-.76,2-.76,2.76,0,.76.76.76,1.99,0,2.76l-68.74,68.74c-.38.38-.88.57-1.38.57Z" style="fill: #028c8c;"/>
      <path d="M165.48,215.31c-.5,0-1-.19-1.38-.57-.76-.76-.76-1.99,0-2.76l68.74-68.74c.76-.76,2-.76,2.76,0,.76.76.76,1.99,0,2.76l-68.74,68.74c-.38.38-.88.57-1.38.57Z" style="fill: #028c8c;"/>
      <path d="M165.48,228.64c-.5,0-1-.19-1.38-.57-.76-.76-.76-1.99,0-2.76l68.74-68.74c.76-.76,2-.76,2.76,0,.76.76.76,1.99,0,2.76l-68.74,68.74c-.38.38-.88.57-1.38.57Z" style="fill: #028c8c;"/>
      <path d="M165.48,241.97c-.5,0-1-.19-1.38-.57-.76-.76-.76-1.99,0-2.76l68.74-68.74c.76-.76,2-.76,2.76,0,.76.76.76,1.99,0,2.76l-68.74,68.74c-.38.38-.88.57-1.38.57Z" style="fill: #028c8c;"/>
      <path d="M165.48,255.31c-.5,0-1-.19-1.38-.57-.76-.76-.76-1.99,0-2.76l68.74-68.74c.76-.76,2-.76,2.76,0,.76.76.76,1.99,0,2.76l-68.74,68.74c-.38.38-.88.57-1.38.57Z" style="fill: #028c8c;"/>
      <path d="M165.48,268.64c-.5,0-1-.19-1.38-.57-.76-.76-.76-1.99,0-2.76l68.74-68.74c.76-.76,2-.76,2.76,0,.76.76.76,1.99,0,2.76l-68.74,68.74c-.38.38-.88.57-1.38.57Z" style="fill: #028c8c;"/>
      <path d="M165.48,281.97c-.5,0-1-.19-1.38-.57-.76-.76-.76-1.99,0-2.76l68.74-68.74c.76-.76,2-.76,2.76,0,.76.76.76,1.99,0,2.76l-68.74,68.74c-.38.38-.88.57-1.38.57Z" style="fill: #028c8c;"/>
    </g>
  </g>
</svg>