<svg xmlns="http://www.w3.org/2000/svg" id="uuid-1c1c578b-3656-411e-9ba9-fecf7d693e71" data-name="Capa 1" width="250" height="250" viewBox="0 0 250 250">
  <path d="M131.12,128.41h0l-100.99-.21-9.55-.2c-1.63-.04-2.94-1.37-2.94-3V20.63c0-1.66,1.34-3,3-3h110.48c1.66,0,3,1.34,3,3,.01,19.25,0,38.51,0,57.77,0,13.03-.01,26.05-.01,39.08,0,.52,0,1.05.01,1.57,0,.51,0,1.01,0,1.47v4.89c0,.8-.32,1.56-.88,2.12-.56.56-1.32.88-2.12.88ZM23.63,122.06l6.56.14,97.92.2v-1.89c0-.45,0-.92,0-1.41,0-.54-.01-1.08-.01-1.63,0-13.03,0-26.05.01-39.08,0-18.26.02-36.51,0-54.76H23.63v98.43Z" style="fill: #fc5b3b;"/>
  <path d="M229.37,232.37h-98.66c-.81,0-1.58-.32-2.14-.9-.56-.57-.87-1.35-.86-2.16.49-26.13.46-52.77.42-78.53-.01-8.46-.02-16.92-.02-25.37,0-1.65,1.34-2.99,2.99-3l95.17-.21,2.89-.19c.83-.06,1.64.24,2.25.8.61.57.95,1.36.95,2.19v104.37c0,1.66-1.34,3-3,3ZM133.76,226.37h92.6v-98.17l-92.25.2c0,7.45,0,14.91.02,22.37.03,24.79.07,50.39-.37,75.59Z" style="fill: #fc5b3b;"/>
  <path d="M130.71,232.37H20.63c-1.66,0-3-1.34-3-3v-104.37c0-.8.32-1.56.88-2.12.56-.56,1.32-.88,2.12-.88h0l100.3.2,10.23.21c1.63.03,2.94,1.37,2.94,3,0,8.45,0,16.91.02,25.36.03,25.79.07,52.46-.42,78.65-.03,1.63-1.36,2.94-3,2.94ZM23.63,226.37h104.13c.44-25.18.4-50.79.37-75.59,0-7.48-.02-14.96-.02-22.43l-7.24-.15-97.24-.2v98.36Z" style="fill: #fc5b3b;"/>
  <path d="M54.47,60.59l-.41,16.71h14.68v-16.71h12.23l-.41,43.62h-11.82v-17.12l-14.68.41.22,16.74-11.42.41c-.34.02-1.03-.42-1.03-.63v-43.42h12.64Z" style="fill: #fc5b3b;"/>
  <path d="M105.83,55.46h5.38v5.07h-17.53v-5.07h5.63v-10.83c-2.14.95-3.81,1.5-5.01,1.67v-5.12c3.24-.7,5.44-1.96,6.59-3.77h4.94v18.06Z" style="fill: #fc5b3b;"/>
  <path d="M229.37,234.37H20.63c-2.76,0-5-2.24-5-5V20.63c0-2.76,2.24-5,5-5h110.48c2.76,0,5,2.24,5,5,.01,19.25,0,38.51,0,57.77,0,13.03-.01,26.05-.01,39.08,0,.52,0,1.04.01,1.55,0,.47,0,.94,0,1.38l90.09-.2,2.82-.19c1.37-.09,2.74.39,3.75,1.34,1.01.95,1.58,2.27,1.58,3.65v104.37c0,2.76-2.24,5-5,5ZM25.63,224.37h198.73v-94.16l-93.24.2h-.01c-1.32,0-2.59-.53-3.53-1.46-.94-.94-1.47-2.21-1.47-3.54v-4.89c0-.44,0-.91,0-1.39,0-.54-.01-1.1-.01-1.65,0-13.03,0-26.05.01-39.08,0-17.59.02-35.18,0-52.76H25.63v198.73Z" style="fill: #fc5b3b;"/>
</svg>