<?xml version="1.0"?>
<svg width="250" height="250" xmlns="http://www.w3.org/2000/svg" xmlns:svg="http://www.w3.org/2000/svg" data-name="Capa 1">
 <g class="layer">
  <title>Layer 1</title>
  <g id="svg_1">
   <path d="m187.88,109.65c-32.96,1.17 -44.45,45.96 -15.96,62.87c18.85,11.2 43.71,1.84 49.67,-19.33c6.32,-22.44 -10.32,-44.37 -33.71,-43.54zm17.36,52.94c-16.74,14.1 -42.37,0.69 -40.67,-21.01c0.87,-11.02 10.12,-21.53 21.27,-22.79c25.1,-2.83 38.54,27.68 19.4,43.8z" fill="#0b439e" id="svg_2"/>
   <path d="m238.85,220.57l-15.37,-27.88l-4.39,-7.95l3.32,-2.63s3.69,-3.33 6.6,-6.64c10.8,-12.99 13.9,-30.53 9.42,-46.76l0,-86.1c0.23,-1.81 -2.94,-5.93 -4.56,-5.93l-12.03,0l0,-13.39c0,-2.24 -4.07,-4.9 -6.27,-4.91c-0.57,0 -1.13,0.33 -1.7,0.34c-11.19,0.21 -23.39,1.09 -34.56,2.04c-15.96,1.35 -32.39,3.76 -45.69,13.28c-2.86,2.04 -5.18,4.49 -7.81,6.69c-14.06,-15.01 -35.37,-18.19 -54.95,-19.97c-10.97,-1 -22.54,-1.69 -33.55,-2.04c-1.78,-0.06 -2.21,-0.59 -4.31,0.1c-1.46,0.47 -3.99,2.56 -3.99,4.14l0,13.39l-10.68,0c-2.66,0 -6.29,3.75 -5.94,6.6l0,138.98c0.22,3.42 2.88,6.05 6.27,6.27l85.76,0c1.27,0.15 0.71,1.68 1,2.72c3.17,11.5 16.9,14.46 27.23,11.95c6.52,-1.59 12.86,-7.67 12.95,-14.68l19.13,0.02c9.55,4.8 20.32,6.64 30.84,5.49l-0.1,0.1l22.55,39.85c9.11,10.49 26.02,2.01 21.53,-11.84l-0.68,-1.23l-0.02,-0.01zm-17.01,-175.08l7.29,0l0.17,65.41l-7.81,-7.64c-0.03,-0.49 0.36,-57.77 0.36,-57.77l-0.01,0zm-91.33,3.75c10.09,-12.89 26.8,-16.94 42.36,-18.67c8.58,-0.95 17.79,-1.47 26.44,-2.03c4.56,-0.3 9.16,-0.5 13.72,-0.68c-0.31,19.25 -0.26,66.94 -0.34,70.16c-17.28,-8.63 -38.73,-7.26 -54.04,4.76c-18.15,14.25 -25.21,39.15 -16.11,60.65c-4.57,1.19 -8.4,4.14 -12.2,6.78l0,-119.81c0,-0.07 -0.22,-0.26 -0.18,-0.53l0.35,-0.63zm-92.7,-21.37c12.23,0.82 24.56,1.17 36.77,2.37c17.05,1.68 36.38,4.91 46.94,19.83l0,120.49l-7.57,-4.8c-8.71,-4.84 -18.11,-6.89 -27.91,-8.36c-15.94,-2.38 -32.18,-2.92 -48.24,-4.12l0,-125.41l0.01,0zm-16.61,151.49l0,-133.87l7.8,0c-0.09,5.91 0.09,11.88 0.01,17.81c-0.28,23.56 -0.29,47.36 0,70.81c0.09,6.98 -0.83,16.48 -0.02,23.07c0.41,3.32 3.29,4.87 6.32,5.2c21.18,2.34 64.65,0.5 80.28,15.64c0.33,0.32 0.64,0.44 0.51,1.01l-94.9,0.34l0,-0.01zm101.49,15.27c-3.82,-0.28 -8,-2.22 -8.29,-6.45l22.03,0c-1.44,6.61 -8.12,6.86 -13.74,6.45zm12.05,-15.61c0.69,-1.74 3.19,-3.25 4.77,-4.21c1.01,-0.61 6.12,-3.25 6.93,-3.24c0.37,0 0.63,0.22 0.86,0.48l5.74,6.97l-18.3,0zm15.01,-22.29c-8.42,-25.61 9.61,-52.78 36.44,-54.87c40.04,-3.13 61.24,47.08 30.39,73.43c-22.31,19.06 -57.7,9.19 -66.83,-18.56zm75.24,71.33l-20.32,-36.13l0.2,-0.08l6.05,-2.53c0.4,0 0.66,0.19 0.85,0.53l4.67,8.43l14.61,26.37c1.33,3.85 -3.31,6.54 -6.06,3.41z" fill="#0b439e" id="svg_3"/>
  </g>
  <path d="m213.25,174.32c10.67,-9.12 15.01,-21.14 14.43,-32.76l-59.35,0l0,38.17c14.05,6.83 31.79,5.8 44.91,-5.41l0.01,0z" fill="none" id="svg_4"/>
 </g>
</svg>