<svg xmlns="http://www.w3.org/2000/svg" id="uuid-d6593c4e-7180-4314-a8a4-c0eea35e4930" data-name="Capa 1" width="250" height="250" viewBox="0 0 250 250">
  <path d="M92.24,22.27c.4,0,.72.32.72.72v21.43c0,.4-.32.72-.72.72H23.34c-.4,0-.72-.32-.72-.72v-21.43c0-.4.32-.72.72-.72h68.9M92.24,12.27H23.34c-5.92,0-10.72,4.8-10.72,10.72v21.43c0,5.92,4.8,10.72,10.72,10.72h68.9c5.92,0,10.72-4.8,10.72-10.72v-21.43c0-5.92-4.8-10.72-10.72-10.72h0Z" style="fill: #d040b2;"/>
  <path d="M192.14,22.27c.4,0,.72.32.72.72v21.43c0,.4-.32.72-.72.72h-68.9c-.4,0-.72-.32-.72-.72v-21.43c0-.4.32-.72.72-.72h68.9M192.14,12.27h-68.9c-5.92,0-10.72,4.8-10.72,10.72v21.43c0,5.92,4.8,10.72,10.72,10.72h68.9c5.92,0,10.72-4.8,10.72-10.72v-21.43c0-5.92-4.8-10.72-10.72-10.72h0Z" style="fill: #d040b2;"/>
  <path d="M202.99,143.12c.4,0,.72.32.72.72v21.43c0,.4-.32.72-.72.72h-68.9c-.4,0-.72-.32-.72-.72v-21.43c0-.4.32-.72.72-.72h68.9M202.99,133.12h-68.9c-5.92,0-10.72,4.8-10.72,10.72v21.43c0,5.92,4.8,10.72,10.72,10.72h68.9c5.92,0,10.72-4.8,10.72-10.72v-21.43c0-5.92-4.8-10.72-10.72-10.72h0Z" style="fill: #d040b2;"/>
  <path d="M92.24,143.12c.4,0,.72.32.72.72v21.43c0,.4-.32.72-.72.72H23.34c-.4,0-.72-.32-.72-.72v-21.43c0-.4.32-.72.72-.72h68.9M92.24,133.12H23.34c-5.92,0-10.72,4.8-10.72,10.72v21.43c0,5.92,4.8,10.72,10.72,10.72h68.9c5.92,0,10.72-4.8,10.72-10.72v-21.43c0-5.92-4.8-10.72-10.72-10.72h0Z" style="fill: #d040b2;"/>
  <path d="M227.75,202.79c.4,0,.72.32.72.72v21.43c0,.4-.32.72-.72.72h-27.18c-.4,0-.72-.32-.72-.72v-21.43c0-.4.32-.72.72-.72h27.18M227.75,192.79h-27.18c-5.92,0-10.72,4.8-10.72,10.72v21.43c0,5.92,4.8,10.72,10.72,10.72h27.18c5.92,0,10.72-4.8,10.72-10.72v-21.43c0-5.92-4.8-10.72-10.72-10.72h0Z" style="fill: #d040b2;"/>
  <path d="M95.54,202.79c.4,0,.72.32.72.72v21.43c0,.4-.32.72-.72.72H24.49c-.4,0-.72-.32-.72-.72v-21.43c0-.4.32-.72.72-.72h71.05M95.54,192.79H24.49c-5.92,0-10.72,4.8-10.72,10.72v21.43c0,5.92,4.8,10.72,10.72,10.72h71.05c5.92,0,10.72-4.8,10.72-10.72v-21.43c0-5.92-4.8-10.72-10.72-10.72h0Z" style="fill: #d040b2;"/>
  <path d="M228.48,83.84c.4,0,.72.32.72.72v21.43c0,.4-.32.72-.72.72h-71.58c-.4,0-.72-.32-.72-.72v-21.43c0-.4.32-.72.72-.72h71.58M228.48,73.84h-71.58c-5.92,0-10.72,4.8-10.72,10.72v21.43c0,5.92,4.8,10.72,10.72,10.72h71.58c5.92,0,10.72-4.8,10.72-10.72v-21.43c0-5.92-4.8-10.72-10.72-10.72h0Z" style="fill: #d040b2;"/>
  <path d="M126.89,83.84c.4,0,.72.32.72.72v21.43c0,.4-.32.72-.72.72h-26.25c-.4,0-.72-.32-.72-.72v-21.43c0-.4.32-.72.72-.72h26.25M126.89,73.84h-26.25c-5.92,0-10.72,4.8-10.72,10.72v21.43c0,5.92,4.8,10.72,10.72,10.72h26.25c5.92,0,10.72-4.8,10.72-10.72v-21.43c0-5.92-4.8-10.72-10.72-10.72h0Z" style="fill: #d040b2;"/>
</svg>