<svg xmlns="http://www.w3.org/2000/svg" xmlns:xlink="http://www.w3.org/1999/xlink" id="uuid-57798bec-7c1f-45a1-87eb-b1b7472c60f8" data-name="Capa 1" width="250" height="250" viewBox="0 0 250 250">
  <defs fill="#fc5b3b">
    <clipPath id="uuid-3dca1e21-525b-481d-b4d1-a29b5194876c" fill="#fc5b3b">
      <path d="M229.2,94.8h-52.8c-2.87,0-5.2,2.33-5.2,5.2v53.07c0,2.87,2.33,5.2,5.2,5.2h52.8c2.87,0,5.2-2.33,5.2-5.2v-53.07c0-2.87-2.33-5.2-5.2-5.2Z" style="fill:#fc5b3b;"/>
    </clipPath>
    <clipPath id="uuid-4a1f3244-a40a-4a2a-8d87-3477cb3fa606" fill="#fc5b3b">
      <path d="M151.87,94.49h-52.8c-2.87,0-5.2,2.33-5.2,5.2v130.18c0,2.87,2.33,5.2,5.2,5.2h52.8c2.87,0,5.2-2.33,5.2-5.2V99.69c0-2.87-2.33-5.2-5.2-5.2Z" style="fill:#fc5b3b;"/>
    </clipPath>
    <clipPath id="uuid-b401c258-44d8-4bcd-ab1f-da7f506ed031" fill="#fc5b3b">
      <path d="M74.53,15.33H21.73c-2.87,0-5.2,2.33-5.2,5.2v132.36c0,2.87,2.33,5.2,5.2,5.2h52.8c2.87,0,5.2-2.33,5.2-5.2V20.53c0-2.87-2.33-5.2-5.2-5.2Z" style="fill:#fc5b3b;"/>
    </clipPath>
  </defs>
  <g>
    <path d="M224.4,26.67v43.47h-120.53V26.67h120.53M229.2,16.67H99.07c-2.87,0-5.2,2.33-5.2,5.2v53.07c0,2.87,2.33,5.2,5.2,5.2h130.13c2.87,0,5.2-2.33,5.2-5.2V21.87c0-2.87-2.33-5.2-5.2-5.2h0Z" style="fill: #fc5b3b;"/>
    <path d="M224.4,181.6v43.47h-43.2v-43.47h43.2M229.2,171.6h-52.8c-2.87,0-5.2,2.33-5.2,5.2v53.07c0,2.87,2.33,5.2,5.2,5.2h52.8c2.87,0,5.2-2.33,5.2-5.2v-53.07c0-2.87-2.33-5.2-5.2-5.2h0Z" style="fill: #fc5b3b;"/>
    <path d="M224.4,104.8v43.47h-43.2v-43.47h43.2M229.2,94.8h-52.8c-2.87,0-5.2,2.33-5.2,5.2v53.07c0,2.87,2.33,5.2,5.2,5.2h52.8c2.87,0,5.2-2.33,5.2-5.2v-53.07c0-2.87-2.33-5.2-5.2-5.2h0Z" style="fill: #fc5b3b;"/>
    <path d="M147.07,104.49v120.58h-43.2v-120.58h43.2M151.87,94.49h-52.8c-2.87,0-5.2,2.33-5.2,5.2v130.18c0,2.87,2.33,5.2,5.2,5.2h52.8c2.87,0,5.2-2.33,5.2-5.2V99.69c0-2.87-2.33-5.2-5.2-5.2h0Z" style="fill: #fc5b3b;"/>
    <path d="M69.73,181.6v43.47H26.53v-43.47h43.2M74.53,171.6H21.73c-2.87,0-5.2,2.33-5.2,5.2v53.07c0,2.87,2.33,5.2,5.2,5.2h52.8c2.87,0,5.2-2.33,5.2-5.2v-53.07c0-2.87-2.33-5.2-5.2-5.2h0Z" style="fill: #fc5b3b;"/>
    <path d="M69.73,25.33v122.76H26.53V25.33h43.2M74.53,15.33H21.73c-2.87,0-5.2,2.33-5.2,5.2v132.36c0,2.87,2.33,5.2,5.2,5.2h52.8c2.87,0,5.2-2.33,5.2-5.2V20.53c0-2.87-2.33-5.2-5.2-5.2h0Z" style="fill: #fc5b3b;"/>
  </g>
  <g style="clip-path: url(#uuid-3dca1e21-525b-481d-b4d1-a29b5194876c);">
    <g>
      <path d="M175.73,184.27c-.51,0-1.02-.2-1.41-.59-.78-.78-.78-2.05,0-2.83l53.51-53.51c.78-.78,2.05-.78,2.83,0,.78.78.78,2.05,0,2.83l-53.51,53.51c-.39.39-.9.59-1.41.59Z" style="fill: #fc5b3b;"/>
      <path d="M175.73,165.07c-.51,0-1.02-.2-1.41-.59-.78-.78-.78-2.05,0-2.83l53.51-53.51c.78-.78,2.05-.78,2.83,0,.78.78.78,2.05,0,2.83l-53.51,53.51c-.39.39-.9.59-1.41.59Z" style="fill: #fc5b3b;"/>
      <path d="M175.73,145.87c-.51,0-1.02-.2-1.41-.59-.78-.78-.78-2.05,0-2.83l53.51-53.51c.78-.78,2.05-.78,2.83,0,.78.78.78,2.05,0,2.83l-53.51,53.51c-.39.39-.9.59-1.41.59Z" style="fill: #fc5b3b;"/>
      <path d="M175.73,126.67c-.51,0-1.02-.2-1.41-.59-.78-.78-.78-2.05,0-2.83l53.51-53.51c.78-.78,2.05-.78,2.83,0,.78.78.78,2.05,0,2.83l-53.51,53.51c-.39.39-.9.59-1.41.59Z" style="fill: #fc5b3b;"/>
    </g>
  </g>
  <g style="clip-path: url(#uuid-4a1f3244-a40a-4a2a-8d87-3477cb3fa606);">
    <g>
      <path d="M95.73,263.73c-.51,0-1.02-.2-1.41-.59-.78-.78-.78-2.05,0-2.83l53.51-53.51c.78-.78,2.05-.78,2.83,0,.78.78.78,2.05,0,2.83l-53.51,53.51c-.39.39-.9.59-1.41.59Z" style="fill: #fc5b3b;"/>
      <path d="M95.73,244.53c-.51,0-1.02-.2-1.41-.59-.78-.78-.78-2.05,0-2.83l53.51-53.51c.78-.78,2.05-.78,2.83,0,.78.78.78,2.05,0,2.83l-53.51,53.51c-.39.39-.9.59-1.41.59Z" style="fill: #fc5b3b;"/>
      <path d="M95.73,225.33c-.51,0-1.02-.2-1.41-.59-.78-.78-.78-2.05,0-2.83l53.51-53.51c.78-.78,2.05-.78,2.83,0,.78.78.78,2.05,0,2.83l-53.51,53.51c-.39.39-.9.59-1.41.59Z" style="fill: #fc5b3b;"/>
      <path d="M95.73,206.13c-.51,0-1.02-.2-1.41-.59-.78-.78-.78-2.05,0-2.83l53.51-53.51c.78-.78,2.05-.78,2.83,0,.78.78.78,2.05,0,2.83l-53.51,53.51c-.39.39-.9.59-1.41.59Z" style="fill: #fc5b3b;"/>
      <path d="M95.73,186.93c-.51,0-1.02-.2-1.41-.59-.78-.78-.78-2.05,0-2.83l53.51-53.51c.78-.78,2.05-.78,2.83,0,.78.78.78,2.05,0,2.83l-53.51,53.51c-.39.39-.9.59-1.41.59Z" style="fill: #fc5b3b;"/>
      <path d="M95.73,167.73c-.51,0-1.02-.2-1.41-.59-.78-.78-.78-2.05,0-2.83l53.51-53.51c.78-.78,2.05-.78,2.83,0,.78.78.78,2.05,0,2.83l-53.51,53.51c-.39.39-.9.59-1.41.59Z" style="fill: #fc5b3b;"/>
      <path d="M95.73,148.53c-.51,0-1.02-.2-1.41-.59-.78-.78-.78-2.05,0-2.83l53.51-53.51c.78-.78,2.05-.78,2.83,0,.78.78.78,2.05,0,2.83l-53.51,53.51c-.39.39-.9.59-1.41.59Z" style="fill: #fc5b3b;"/>
      <path d="M95.73,129.33c-.51,0-1.02-.2-1.41-.59-.78-.78-.78-2.05,0-2.83l53.51-53.51c.78-.78,2.05-.78,2.83,0,.78.78.78,2.05,0,2.83l-53.51,53.51c-.39.39-.9.59-1.41.59Z" style="fill: #fc5b3b;"/>
    </g>
  </g>
  <g style="clip-path: url(#uuid-b401c258-44d8-4bcd-ab1f-da7f506ed031);">
    <g>
      <path d="M21.42,184.44c-.51,0-1.02-.2-1.41-.59-.78-.78-.78-2.05,0-2.83l53.51-53.51c.78-.78,2.05-.78,2.83,0,.78.78.78,2.05,0,2.83l-53.51,53.51c-.39.39-.9.59-1.41.59Z" style="fill: #fc5b3b;"/>
      <path d="M21.42,165.24c-.51,0-1.02-.2-1.41-.59-.78-.78-.78-2.05,0-2.83l53.51-53.51c.78-.78,2.05-.78,2.83,0,.78.78.78,2.05,0,2.83l-53.51,53.51c-.39.39-.9.59-1.41.59Z" style="fill: #fc5b3b;"/>
      <path d="M21.42,146.04c-.51,0-1.02-.2-1.41-.59-.78-.78-.78-2.05,0-2.83l53.51-53.51c.78-.78,2.05-.78,2.83,0,.78.78.78,2.05,0,2.83l-53.51,53.51c-.39.39-.9.59-1.41.59Z" style="fill: #fc5b3b;"/>
      <path d="M21.42,126.84c-.51,0-1.02-.2-1.41-.59-.78-.78-.78-2.05,0-2.83l53.51-53.51c.78-.78,2.05-.78,2.83,0,.78.78.78,2.05,0,2.83l-53.51,53.51c-.39.39-.9.59-1.41.59Z" style="fill: #fc5b3b;"/>
      <path d="M21.42,107.64c-.51,0-1.02-.2-1.41-.59-.78-.78-.78-2.05,0-2.83l53.51-53.51c.78-.78,2.05-.78,2.83,0,.78.78.78,2.05,0,2.83l-53.51,53.51c-.39.39-.9.59-1.41.59Z" style="fill: #fc5b3b;"/>
      <path d="M21.42,88.44c-.51,0-1.02-.2-1.41-.59-.78-.78-.78-2.05,0-2.83l53.51-53.51c.78-.78,2.05-.78,2.83,0,.78.78.78,2.05,0,2.83l-53.51,53.51c-.39.39-.9.59-1.41.59Z" style="fill: #fc5b3b;"/>
      <path d="M21.42,69.24c-.51,0-1.02-.2-1.41-.59-.78-.78-.78-2.05,0-2.83L73.52,12.32c.78-.78,2.05-.78,2.83,0,.78.78.78,2.05,0,2.83l-53.51,53.51c-.39.39-.9.59-1.41.59Z" style="fill: #fc5b3b;"/>
      <path d="M21.42,50.04c-.51,0-1.02-.2-1.41-.59-.78-.78-.78-2.05,0-2.83L73.52-6.88c.78-.78,2.05-.78,2.83,0,.78.78.78,2.05,0,2.83L22.84,49.46c-.39.39-.9.59-1.41.59Z" style="fill: #fc5b3b;"/>
    </g>
  </g>
</svg>